<mxfile host="65bd71144e">
    <diagram id="IDriUK0oMpXel3kUp1U5" name="Page-1">
        <mxGraphModel dx="1374" dy="823" grid="1" gridSize="10" guides="1" tooltips="1" connect="1" arrows="1" fold="1" page="1" pageScale="1" pageWidth="1169" pageHeight="827" background="#ffffff" math="0" shadow="1">
            <root>
                <mxCell id="0"/>
                <mxCell id="1" parent="0"/>
                <mxCell id="35" value="STUDENT" style="shape=table;startSize=40;container=1;collapsible=0;childLayout=tableLayout;fontStyle=1;align=center;pointerEvents=1;shadow=1;fontSize=25;fillColor=#f0a30a;fontColor=#000000;strokeColor=#BD7000;gradientColor=none;swimlaneFillColor=none;rounded=0;" parent="1" vertex="1">
                    <mxGeometry x="40" y="40" width="500" height="270" as="geometry"/>
                </mxCell>
                <mxCell id="36" value="" style="shape=partialRectangle;html=1;whiteSpace=wrap;collapsible=0;dropTarget=0;pointerEvents=0;fillColor=none;top=0;left=0;bottom=0;right=0;points=[[0,0.5],[1,0.5]];portConstraint=eastwest;shadow=1;fontSize=20;rounded=0;" parent="35" vertex="1">
                    <mxGeometry y="40" width="500" height="38" as="geometry"/>
                </mxCell>
                <mxCell id="37" value="id_student" style="shape=partialRectangle;html=1;whiteSpace=wrap;connectable=0;fillColor=none;top=0;left=0;bottom=0;right=0;overflow=hidden;pointerEvents=1;shadow=1;fontSize=20;rounded=0;" parent="36" vertex="1">
                    <mxGeometry width="166" height="38" as="geometry">
                        <mxRectangle width="166" height="38" as="alternateBounds"/>
                    </mxGeometry>
                </mxCell>
                <mxCell id="38" value="INT" style="shape=partialRectangle;html=1;whiteSpace=wrap;connectable=0;fillColor=none;top=0;left=0;bottom=0;right=0;overflow=hidden;pointerEvents=1;shadow=1;fontSize=20;rounded=0;" parent="36" vertex="1">
                    <mxGeometry x="166" width="168" height="38" as="geometry">
                        <mxRectangle width="168" height="38" as="alternateBounds"/>
                    </mxGeometry>
                </mxCell>
                <mxCell id="39" value="PRIMARY KEY" style="shape=partialRectangle;html=1;whiteSpace=wrap;connectable=0;fillColor=none;top=0;left=0;bottom=0;right=0;overflow=hidden;pointerEvents=1;shadow=1;fontSize=20;rounded=0;" parent="36" vertex="1">
                    <mxGeometry x="334" width="166" height="38" as="geometry">
                        <mxRectangle width="166" height="38" as="alternateBounds"/>
                    </mxGeometry>
                </mxCell>
                <mxCell id="40" value="" style="shape=partialRectangle;html=1;whiteSpace=wrap;collapsible=0;dropTarget=0;pointerEvents=0;fillColor=none;top=0;left=0;bottom=0;right=0;points=[[0,0.5],[1,0.5]];portConstraint=eastwest;shadow=1;fontSize=20;rounded=0;" parent="35" vertex="1">
                    <mxGeometry y="78" width="500" height="39" as="geometry"/>
                </mxCell>
                <mxCell id="41" value="firstName" style="shape=partialRectangle;html=1;whiteSpace=wrap;connectable=0;fillColor=none;top=0;left=0;bottom=0;right=0;overflow=hidden;pointerEvents=1;shadow=1;fontSize=20;rounded=0;" parent="40" vertex="1">
                    <mxGeometry width="166" height="39" as="geometry">
                        <mxRectangle width="166" height="39" as="alternateBounds"/>
                    </mxGeometry>
                </mxCell>
                <mxCell id="42" value="VARCHAR(100)" style="shape=partialRectangle;html=1;whiteSpace=wrap;connectable=0;fillColor=none;top=0;left=0;bottom=0;right=0;overflow=hidden;pointerEvents=1;shadow=1;fontSize=20;rounded=0;" parent="40" vertex="1">
                    <mxGeometry x="166" width="168" height="39" as="geometry">
                        <mxRectangle width="168" height="39" as="alternateBounds"/>
                    </mxGeometry>
                </mxCell>
                <mxCell id="43" value="NOT NULL" style="shape=partialRectangle;html=1;whiteSpace=wrap;connectable=0;fillColor=none;top=0;left=0;bottom=0;right=0;overflow=hidden;pointerEvents=1;shadow=1;fontSize=20;rounded=0;" parent="40" vertex="1">
                    <mxGeometry x="334" width="166" height="39" as="geometry">
                        <mxRectangle width="166" height="39" as="alternateBounds"/>
                    </mxGeometry>
                </mxCell>
                <mxCell id="44" value="" style="shape=partialRectangle;html=1;whiteSpace=wrap;collapsible=0;dropTarget=0;pointerEvents=0;fillColor=none;top=0;left=0;bottom=0;right=0;points=[[0,0.5],[1,0.5]];portConstraint=eastwest;shadow=1;fontSize=20;rounded=0;" parent="35" vertex="1">
                    <mxGeometry y="117" width="500" height="38" as="geometry"/>
                </mxCell>
                <mxCell id="45" value="lastName" style="shape=partialRectangle;html=1;whiteSpace=wrap;connectable=0;fillColor=none;top=0;left=0;bottom=0;right=0;overflow=hidden;pointerEvents=1;shadow=1;fontSize=20;rounded=0;" parent="44" vertex="1">
                    <mxGeometry width="166" height="38" as="geometry">
                        <mxRectangle width="166" height="38" as="alternateBounds"/>
                    </mxGeometry>
                </mxCell>
                <mxCell id="46" value="VARCHAR(100)" style="shape=partialRectangle;html=1;whiteSpace=wrap;connectable=0;fillColor=none;top=0;left=0;bottom=0;right=0;overflow=hidden;pointerEvents=1;shadow=1;fontSize=20;rounded=0;" parent="44" vertex="1">
                    <mxGeometry x="166" width="168" height="38" as="geometry">
                        <mxRectangle width="168" height="38" as="alternateBounds"/>
                    </mxGeometry>
                </mxCell>
                <mxCell id="47" value="NOT NULL" style="shape=partialRectangle;html=1;whiteSpace=wrap;connectable=0;fillColor=none;top=0;left=0;bottom=0;right=0;overflow=hidden;pointerEvents=1;shadow=1;fontSize=20;rounded=0;" parent="44" vertex="1">
                    <mxGeometry x="334" width="166" height="38" as="geometry">
                        <mxRectangle width="166" height="38" as="alternateBounds"/>
                    </mxGeometry>
                </mxCell>
                <mxCell id="48" style="shape=partialRectangle;html=1;whiteSpace=wrap;collapsible=0;dropTarget=0;pointerEvents=0;fillColor=none;top=0;left=0;bottom=0;right=0;points=[[0,0.5],[1,0.5]];portConstraint=eastwest;shadow=1;fontSize=20;rounded=0;" parent="35" vertex="1">
                    <mxGeometry y="155" width="500" height="38" as="geometry"/>
                </mxCell>
                <mxCell id="49" value="email" style="shape=partialRectangle;html=1;whiteSpace=wrap;connectable=0;fillColor=none;top=0;left=0;bottom=0;right=0;overflow=hidden;pointerEvents=1;shadow=1;fontSize=20;rounded=0;" parent="48" vertex="1">
                    <mxGeometry width="166" height="38" as="geometry">
                        <mxRectangle width="166" height="38" as="alternateBounds"/>
                    </mxGeometry>
                </mxCell>
                <mxCell id="50" value="VARCHAR(150)" style="shape=partialRectangle;html=1;whiteSpace=wrap;connectable=0;fillColor=none;top=0;left=0;bottom=0;right=0;overflow=hidden;pointerEvents=1;shadow=1;fontSize=20;rounded=0;" parent="48" vertex="1">
                    <mxGeometry x="166" width="168" height="38" as="geometry">
                        <mxRectangle width="168" height="38" as="alternateBounds"/>
                    </mxGeometry>
                </mxCell>
                <mxCell id="51" value="NOT NULL" style="shape=partialRectangle;html=1;whiteSpace=wrap;connectable=0;fillColor=none;top=0;left=0;bottom=0;right=0;overflow=hidden;pointerEvents=1;shadow=1;fontSize=20;rounded=0;" parent="48" vertex="1">
                    <mxGeometry x="334" width="166" height="38" as="geometry">
                        <mxRectangle width="166" height="38" as="alternateBounds"/>
                    </mxGeometry>
                </mxCell>
                <mxCell id="52" style="shape=partialRectangle;html=1;whiteSpace=wrap;collapsible=0;dropTarget=0;pointerEvents=0;fillColor=none;top=0;left=0;bottom=0;right=0;points=[[0,0.5],[1,0.5]];portConstraint=eastwest;shadow=1;fontSize=20;rounded=0;" parent="35" vertex="1">
                    <mxGeometry y="193" width="500" height="39" as="geometry"/>
                </mxCell>
                <mxCell id="53" value="gender" style="shape=partialRectangle;html=1;whiteSpace=wrap;connectable=0;fillColor=none;top=0;left=0;bottom=0;right=0;overflow=hidden;pointerEvents=1;shadow=1;fontSize=20;rounded=0;" parent="52" vertex="1">
                    <mxGeometry width="166" height="39" as="geometry">
                        <mxRectangle width="166" height="39" as="alternateBounds"/>
                    </mxGeometry>
                </mxCell>
                <mxCell id="54" value="CHAR" style="shape=partialRectangle;html=1;whiteSpace=wrap;connectable=0;fillColor=none;top=0;left=0;bottom=0;right=0;overflow=hidden;pointerEvents=1;shadow=1;fontSize=20;rounded=0;" parent="52" vertex="1">
                    <mxGeometry x="166" width="168" height="39" as="geometry">
                        <mxRectangle width="168" height="39" as="alternateBounds"/>
                    </mxGeometry>
                </mxCell>
                <mxCell id="55" value="NOT NULL" style="shape=partialRectangle;html=1;whiteSpace=wrap;connectable=0;fillColor=none;top=0;left=0;bottom=0;right=0;overflow=hidden;pointerEvents=1;shadow=1;fontSize=20;rounded=0;" parent="52" vertex="1">
                    <mxGeometry x="334" width="166" height="39" as="geometry">
                        <mxRectangle width="166" height="39" as="alternateBounds"/>
                    </mxGeometry>
                </mxCell>
                <mxCell id="73" style="shape=partialRectangle;html=1;whiteSpace=wrap;collapsible=0;dropTarget=0;pointerEvents=0;fillColor=none;top=0;left=0;bottom=0;right=0;points=[[0,0.5],[1,0.5]];portConstraint=eastwest;shadow=1;fontSize=20;rounded=0;" parent="35" vertex="1">
                    <mxGeometry y="232" width="500" height="38" as="geometry"/>
                </mxCell>
                <mxCell id="74" value="id_group" style="shape=partialRectangle;html=1;whiteSpace=wrap;connectable=0;fillColor=none;top=0;left=0;bottom=0;right=0;overflow=hidden;pointerEvents=1;shadow=1;fontSize=20;rounded=0;" parent="73" vertex="1">
                    <mxGeometry width="166" height="38" as="geometry">
                        <mxRectangle width="166" height="38" as="alternateBounds"/>
                    </mxGeometry>
                </mxCell>
                <mxCell id="75" value="INT" style="shape=partialRectangle;html=1;whiteSpace=wrap;connectable=0;fillColor=none;top=0;left=0;bottom=0;right=0;overflow=hidden;pointerEvents=1;shadow=1;fontSize=20;rounded=0;" parent="73" vertex="1">
                    <mxGeometry x="166" width="168" height="38" as="geometry">
                        <mxRectangle width="168" height="38" as="alternateBounds"/>
                    </mxGeometry>
                </mxCell>
                <mxCell id="76" value="FOREIGN KEY" style="shape=partialRectangle;html=1;whiteSpace=wrap;connectable=0;fillColor=none;top=0;left=0;bottom=0;right=0;overflow=hidden;pointerEvents=1;shadow=1;fontSize=20;rounded=0;" parent="73" vertex="1">
                    <mxGeometry x="334" width="166" height="38" as="geometry">
                        <mxRectangle width="166" height="38" as="alternateBounds"/>
                    </mxGeometry>
                </mxCell>
                <mxCell id="56" value="GRADE" style="shape=table;startSize=40;container=1;collapsible=0;childLayout=tableLayout;fontStyle=1;align=center;pointerEvents=1;shadow=1;fontSize=20;fillColor=#0050ef;fontColor=#ffffff;strokeColor=#001DBC;rounded=0;" parent="1" vertex="1">
                    <mxGeometry x="850" y="40" width="495" height="190" as="geometry"/>
                </mxCell>
                <mxCell id="57" value="" style="shape=partialRectangle;html=1;whiteSpace=wrap;collapsible=0;dropTarget=0;pointerEvents=0;fillColor=none;top=0;left=0;bottom=0;right=0;points=[[0,0.5],[1,0.5]];portConstraint=eastwest;shadow=1;fontSize=20;rounded=0;" parent="56" vertex="1">
                    <mxGeometry y="40" width="495" height="38" as="geometry"/>
                </mxCell>
                <mxCell id="58" value="idGrade" style="shape=partialRectangle;html=1;whiteSpace=wrap;connectable=0;fillColor=none;top=0;left=0;bottom=0;right=0;overflow=hidden;pointerEvents=1;shadow=1;fontSize=20;rounded=0;" parent="57" vertex="1">
                    <mxGeometry width="165" height="38" as="geometry">
                        <mxRectangle width="165" height="38" as="alternateBounds"/>
                    </mxGeometry>
                </mxCell>
                <mxCell id="59" value="INT" style="shape=partialRectangle;html=1;whiteSpace=wrap;connectable=0;fillColor=none;top=0;left=0;bottom=0;right=0;overflow=hidden;pointerEvents=1;shadow=1;fontSize=20;rounded=0;" parent="57" vertex="1">
                    <mxGeometry x="165" width="165" height="38" as="geometry">
                        <mxRectangle width="165" height="38" as="alternateBounds"/>
                    </mxGeometry>
                </mxCell>
                <mxCell id="60" value="PRIMARY KEY" style="shape=partialRectangle;html=1;whiteSpace=wrap;connectable=0;fillColor=none;top=0;left=0;bottom=0;right=0;overflow=hidden;pointerEvents=1;shadow=1;fontSize=20;rounded=0;" parent="57" vertex="1">
                    <mxGeometry x="330" width="165" height="38" as="geometry">
                        <mxRectangle width="165" height="38" as="alternateBounds"/>
                    </mxGeometry>
                </mxCell>
                <mxCell id="65" value="" style="shape=partialRectangle;html=1;whiteSpace=wrap;collapsible=0;dropTarget=0;pointerEvents=0;fillColor=none;top=0;left=0;bottom=0;right=0;points=[[0,0.5],[1,0.5]];portConstraint=eastwest;shadow=1;fontSize=20;rounded=0;" parent="56" vertex="1">
                    <mxGeometry y="78" width="495" height="38" as="geometry"/>
                </mxCell>
                <mxCell id="66" value="average" style="shape=partialRectangle;html=1;whiteSpace=wrap;connectable=0;fillColor=none;top=0;left=0;bottom=0;right=0;overflow=hidden;pointerEvents=1;shadow=1;fontSize=20;rounded=0;" parent="65" vertex="1">
                    <mxGeometry width="165" height="38" as="geometry">
                        <mxRectangle width="165" height="38" as="alternateBounds"/>
                    </mxGeometry>
                </mxCell>
                <mxCell id="67" value="DOUBLE" style="shape=partialRectangle;html=1;whiteSpace=wrap;connectable=0;fillColor=none;top=0;left=0;bottom=0;right=0;overflow=hidden;pointerEvents=1;shadow=1;fontSize=20;rounded=0;" parent="65" vertex="1">
                    <mxGeometry x="165" width="165" height="38" as="geometry">
                        <mxRectangle width="165" height="38" as="alternateBounds"/>
                    </mxGeometry>
                </mxCell>
                <mxCell id="68" value="NOT NULL" style="shape=partialRectangle;html=1;whiteSpace=wrap;connectable=0;fillColor=none;top=0;left=0;bottom=0;right=0;overflow=hidden;pointerEvents=1;shadow=1;fontSize=20;rounded=0;" parent="65" vertex="1">
                    <mxGeometry x="330" width="165" height="38" as="geometry">
                        <mxRectangle width="165" height="38" as="alternateBounds"/>
                    </mxGeometry>
                </mxCell>
                <mxCell id="69" style="shape=partialRectangle;html=1;whiteSpace=wrap;collapsible=0;dropTarget=0;pointerEvents=0;fillColor=none;top=0;left=0;bottom=0;right=0;points=[[0,0.5],[1,0.5]];portConstraint=eastwest;shadow=1;fontSize=20;rounded=0;" parent="56" vertex="1">
                    <mxGeometry y="116" width="495" height="37" as="geometry"/>
                </mxCell>
                <mxCell id="70" value="id_student" style="shape=partialRectangle;html=1;whiteSpace=wrap;connectable=0;fillColor=none;top=0;left=0;bottom=0;right=0;overflow=hidden;pointerEvents=1;shadow=1;fontSize=20;rounded=0;" parent="69" vertex="1">
                    <mxGeometry width="165" height="37" as="geometry">
                        <mxRectangle width="165" height="37" as="alternateBounds"/>
                    </mxGeometry>
                </mxCell>
                <mxCell id="71" value="INT" style="shape=partialRectangle;html=1;whiteSpace=wrap;connectable=0;fillColor=none;top=0;left=0;bottom=0;right=0;overflow=hidden;pointerEvents=1;shadow=1;fontSize=20;rounded=0;" parent="69" vertex="1">
                    <mxGeometry x="165" width="165" height="37" as="geometry">
                        <mxRectangle width="165" height="37" as="alternateBounds"/>
                    </mxGeometry>
                </mxCell>
                <mxCell id="72" value="FOREIGN KEY" style="shape=partialRectangle;html=1;whiteSpace=wrap;connectable=0;fillColor=none;top=0;left=0;bottom=0;right=0;overflow=hidden;pointerEvents=1;shadow=1;fontSize=20;rounded=0;" parent="69" vertex="1">
                    <mxGeometry x="330" width="165" height="37" as="geometry">
                        <mxRectangle width="165" height="37" as="alternateBounds"/>
                    </mxGeometry>
                </mxCell>
                <mxCell id="109" style="shape=partialRectangle;html=1;whiteSpace=wrap;collapsible=0;dropTarget=0;pointerEvents=0;fillColor=none;top=0;left=0;bottom=0;right=0;points=[[0,0.5],[1,0.5]];portConstraint=eastwest;shadow=1;fontSize=20;rounded=0;" vertex="1" parent="56">
                    <mxGeometry y="153" width="495" height="37" as="geometry"/>
                </mxCell>
                <mxCell id="110" value="id_subject" style="shape=partialRectangle;html=1;whiteSpace=wrap;connectable=0;fillColor=none;top=0;left=0;bottom=0;right=0;overflow=hidden;pointerEvents=1;shadow=1;fontSize=20;rounded=0;" vertex="1" parent="109">
                    <mxGeometry width="165" height="37" as="geometry">
                        <mxRectangle width="165" height="37" as="alternateBounds"/>
                    </mxGeometry>
                </mxCell>
                <mxCell id="111" value="INT" style="shape=partialRectangle;html=1;whiteSpace=wrap;connectable=0;fillColor=none;top=0;left=0;bottom=0;right=0;overflow=hidden;pointerEvents=1;shadow=1;fontSize=20;rounded=0;" vertex="1" parent="109">
                    <mxGeometry x="165" width="165" height="37" as="geometry">
                        <mxRectangle width="165" height="37" as="alternateBounds"/>
                    </mxGeometry>
                </mxCell>
                <mxCell id="112" value="FOREIGN KEY" style="shape=partialRectangle;html=1;whiteSpace=wrap;connectable=0;fillColor=none;top=0;left=0;bottom=0;right=0;overflow=hidden;pointerEvents=1;shadow=1;fontSize=20;rounded=0;" vertex="1" parent="109">
                    <mxGeometry x="330" width="165" height="37" as="geometry">
                        <mxRectangle width="165" height="37" as="alternateBounds"/>
                    </mxGeometry>
                </mxCell>
                <mxCell id="82" value="GROUP" style="shape=table;startSize=30;container=1;collapsible=0;childLayout=tableLayout;fontStyle=1;align=center;pointerEvents=1;fontSize=25;fillColor=#60a917;fontColor=#ffffff;strokeColor=#2D7600;" parent="1" vertex="1">
                    <mxGeometry x="40" y="480" width="480" height="117" as="geometry"/>
                </mxCell>
                <mxCell id="83" value="" style="shape=partialRectangle;html=1;whiteSpace=wrap;collapsible=0;dropTarget=0;pointerEvents=0;fillColor=none;top=0;left=0;bottom=0;right=0;points=[[0,0.5],[1,0.5]];portConstraint=eastwest;fontSize=15;" parent="82" vertex="1">
                    <mxGeometry y="30" width="480" height="43" as="geometry"/>
                </mxCell>
                <mxCell id="84" value="&lt;font style=&quot;font-size: 20px&quot;&gt;id_group&lt;/font&gt;" style="shape=partialRectangle;html=1;whiteSpace=wrap;connectable=0;fillColor=none;top=0;left=0;bottom=0;right=0;overflow=hidden;pointerEvents=1;fontSize=20;" parent="83" vertex="1">
                    <mxGeometry width="160" height="43" as="geometry">
                        <mxRectangle width="160" height="43" as="alternateBounds"/>
                    </mxGeometry>
                </mxCell>
                <mxCell id="85" value="INT" style="shape=partialRectangle;html=1;whiteSpace=wrap;connectable=0;fillColor=none;top=0;left=0;bottom=0;right=0;overflow=hidden;pointerEvents=1;fontSize=20;" parent="83" vertex="1">
                    <mxGeometry x="160" width="160" height="43" as="geometry">
                        <mxRectangle width="160" height="43" as="alternateBounds"/>
                    </mxGeometry>
                </mxCell>
                <mxCell id="86" value="PRIMARY KEY" style="shape=partialRectangle;html=1;whiteSpace=wrap;connectable=0;fillColor=none;top=0;left=0;bottom=0;right=0;overflow=hidden;pointerEvents=1;fontSize=20;" parent="83" vertex="1">
                    <mxGeometry x="320" width="160" height="43" as="geometry">
                        <mxRectangle width="160" height="43" as="alternateBounds"/>
                    </mxGeometry>
                </mxCell>
                <mxCell id="87" value="" style="shape=partialRectangle;html=1;whiteSpace=wrap;collapsible=0;dropTarget=0;pointerEvents=0;fillColor=none;top=0;left=0;bottom=0;right=0;points=[[0,0.5],[1,0.5]];portConstraint=eastwest;" parent="82" vertex="1">
                    <mxGeometry y="73" width="480" height="44" as="geometry"/>
                </mxCell>
                <mxCell id="88" value="name" style="shape=partialRectangle;html=1;whiteSpace=wrap;connectable=0;fillColor=none;top=0;left=0;bottom=0;right=0;overflow=hidden;pointerEvents=1;fontSize=20;" parent="87" vertex="1">
                    <mxGeometry width="160" height="44" as="geometry">
                        <mxRectangle width="160" height="44" as="alternateBounds"/>
                    </mxGeometry>
                </mxCell>
                <mxCell id="89" value="VARCHAR(50)" style="shape=partialRectangle;html=1;whiteSpace=wrap;connectable=0;fillColor=none;top=0;left=0;bottom=0;right=0;overflow=hidden;pointerEvents=1;fontSize=20;" parent="87" vertex="1">
                    <mxGeometry x="160" width="160" height="44" as="geometry">
                        <mxRectangle width="160" height="44" as="alternateBounds"/>
                    </mxGeometry>
                </mxCell>
                <mxCell id="90" value="NOT NULL" style="shape=partialRectangle;html=1;whiteSpace=wrap;connectable=0;fillColor=none;top=0;left=0;bottom=0;right=0;overflow=hidden;pointerEvents=1;fontSize=20;" parent="87" vertex="1">
                    <mxGeometry x="320" width="160" height="44" as="geometry">
                        <mxRectangle width="160" height="44" as="alternateBounds"/>
                    </mxGeometry>
                </mxCell>
                <mxCell id="96" value="SUBJECT" style="shape=table;startSize=40;container=1;collapsible=0;childLayout=tableLayout;fontStyle=1;align=center;pointerEvents=1;fontSize=25;" vertex="1" parent="1">
                    <mxGeometry x="832.5" y="480" width="530" height="161" as="geometry"/>
                </mxCell>
                <mxCell id="97" value="" style="shape=partialRectangle;html=1;whiteSpace=wrap;collapsible=0;dropTarget=0;pointerEvents=0;fillColor=none;top=0;left=0;bottom=0;right=0;points=[[0,0.5],[1,0.5]];portConstraint=eastwest;" vertex="1" parent="96">
                    <mxGeometry y="40" width="530" height="59" as="geometry"/>
                </mxCell>
                <mxCell id="98" value="id_subject" style="shape=partialRectangle;html=1;whiteSpace=wrap;connectable=0;fillColor=none;top=0;left=0;bottom=0;right=0;overflow=hidden;pointerEvents=1;fontSize=20;" vertex="1" parent="97">
                    <mxGeometry width="177" height="59" as="geometry">
                        <mxRectangle width="177" height="59" as="alternateBounds"/>
                    </mxGeometry>
                </mxCell>
                <mxCell id="99" value="INT" style="shape=partialRectangle;html=1;whiteSpace=wrap;connectable=0;fillColor=none;top=0;left=0;bottom=0;right=0;overflow=hidden;pointerEvents=1;fontSize=20;" vertex="1" parent="97">
                    <mxGeometry x="177" width="176" height="59" as="geometry">
                        <mxRectangle width="176" height="59" as="alternateBounds"/>
                    </mxGeometry>
                </mxCell>
                <mxCell id="100" value="PRIMARY KEY" style="shape=partialRectangle;html=1;whiteSpace=wrap;connectable=0;fillColor=none;top=0;left=0;bottom=0;right=0;overflow=hidden;pointerEvents=1;fontSize=20;" vertex="1" parent="97">
                    <mxGeometry x="353" width="177" height="59" as="geometry">
                        <mxRectangle width="177" height="59" as="alternateBounds"/>
                    </mxGeometry>
                </mxCell>
                <mxCell id="101" value="" style="shape=partialRectangle;html=1;whiteSpace=wrap;collapsible=0;dropTarget=0;pointerEvents=0;fillColor=none;top=0;left=0;bottom=0;right=0;points=[[0,0.5],[1,0.5]];portConstraint=eastwest;" vertex="1" parent="96">
                    <mxGeometry y="99" width="530" height="62" as="geometry"/>
                </mxCell>
                <mxCell id="102" value="subject" style="shape=partialRectangle;html=1;whiteSpace=wrap;connectable=0;fillColor=none;top=0;left=0;bottom=0;right=0;overflow=hidden;pointerEvents=1;fontSize=20;" vertex="1" parent="101">
                    <mxGeometry width="177" height="62" as="geometry">
                        <mxRectangle width="177" height="62" as="alternateBounds"/>
                    </mxGeometry>
                </mxCell>
                <mxCell id="103" value="VARCHAR(50)" style="shape=partialRectangle;html=1;whiteSpace=wrap;connectable=0;fillColor=none;top=0;left=0;bottom=0;right=0;overflow=hidden;pointerEvents=1;fontSize=20;" vertex="1" parent="101">
                    <mxGeometry x="177" width="176" height="62" as="geometry">
                        <mxRectangle width="176" height="62" as="alternateBounds"/>
                    </mxGeometry>
                </mxCell>
                <mxCell id="104" value="NOT NULL" style="shape=partialRectangle;html=1;whiteSpace=wrap;connectable=0;fillColor=none;top=0;left=0;bottom=0;right=0;overflow=hidden;pointerEvents=1;fontSize=20;" vertex="1" parent="101">
                    <mxGeometry x="353" width="177" height="62" as="geometry">
                        <mxRectangle width="177" height="62" as="alternateBounds"/>
                    </mxGeometry>
                </mxCell>
                <mxCell id="114" value="" style="endArrow=classic;startArrow=none;html=1;fontSize=20;entryX=0.482;entryY=1.058;entryDx=0;entryDy=0;entryPerimeter=0;exitX=0.5;exitY=0;exitDx=0;exitDy=0;" edge="1" parent="1" source="113" target="73">
                    <mxGeometry width="50" height="50" relative="1" as="geometry">
                        <mxPoint x="670" y="450" as="sourcePoint"/>
                        <mxPoint x="720" y="400" as="targetPoint"/>
                    </mxGeometry>
                </mxCell>
                <mxCell id="115" value="" style="endArrow=classic;startArrow=classic;html=1;fontSize=20;entryX=0.502;entryY=1.049;entryDx=0;entryDy=0;entryPerimeter=0;exitX=0.5;exitY=0;exitDx=0;exitDy=0;" edge="1" parent="1" source="96" target="109">
                    <mxGeometry width="50" height="50" relative="1" as="geometry">
                        <mxPoint x="670" y="450" as="sourcePoint"/>
                        <mxPoint x="720" y="400" as="targetPoint"/>
                    </mxGeometry>
                </mxCell>
                <mxCell id="116" value="Avoir" style="rounded=1;whiteSpace=wrap;html=1;fontSize=20;" vertex="1" parent="1">
                    <mxGeometry x="1037.5" y="320" width="120" height="60" as="geometry"/>
                </mxCell>
                <mxCell id="113" value="Appartenir" style="rounded=1;whiteSpace=wrap;html=1;fontSize=20;" vertex="1" parent="1">
                    <mxGeometry x="220" y="354" width="120" height="60" as="geometry"/>
                </mxCell>
                <mxCell id="117" value="" style="endArrow=none;startArrow=classic;html=1;fontSize=20;entryX=0.482;entryY=1.058;entryDx=0;entryDy=0;entryPerimeter=0;exitX=0.5;exitY=0;exitDx=0;exitDy=0;" edge="1" parent="1" source="82" target="113">
                    <mxGeometry width="50" height="50" relative="1" as="geometry">
                        <mxPoint x="280" y="480" as="sourcePoint"/>
                        <mxPoint x="281" y="312.20399999999995" as="targetPoint"/>
                    </mxGeometry>
                </mxCell>
                <mxCell id="118" value="" style="endArrow=classic;startArrow=classic;html=1;fontSize=20;entryX=-0.007;entryY=-0.059;entryDx=0;entryDy=0;entryPerimeter=0;exitX=0.998;exitY=0.857;exitDx=0;exitDy=0;exitPerimeter=0;" edge="1" parent="1" source="40" target="69">
                    <mxGeometry width="50" height="50" relative="1" as="geometry">
                        <mxPoint x="670" y="450" as="sourcePoint"/>
                        <mxPoint x="720" y="400" as="targetPoint"/>
                    </mxGeometry>
                </mxCell>
                <mxCell id="119" value="Posseder" style="rounded=1;whiteSpace=wrap;html=1;fontSize=20;" vertex="1" parent="1">
                    <mxGeometry x="640" y="130" width="120" height="60" as="geometry"/>
                </mxCell>
            </root>
        </mxGraphModel>
    </diagram>
</mxfile>